# xmcd
#
# Track frame offsets: 
#        150
#        10335
#        26362
#        40102
#        66412
#        78637
#        89887
#        129282
#        143000
#        154730
#        167717
#        183920
#        199840
#
# Disc length: 2993 seconds
#
# Revision: 0
# Processed by: cddbd v1.4PL0 Copyright (c) Steve Scherf et al.
# Submitted via: ExactAudioCopy v0.95a2
#
DISCID=ab0baf0d
DTITLE=Brenda Lee - Little Miss Dynamite
DYEAR=1997
DGENRE=Country
TTITLE0=I'm Sorry
TTITLE1=Johnny One Time
TTITLE2=Your Mama Don't Dance
TTITLE3=Medley
TTITLE4=How Much Love
TTITLE5=That's All You Gotta Do
TTITLE6=Medley
TTITLE7=You Don't Have To Say You Love Me
TTITLE8=Silver Threads And Golden Needles
TTITLE9=Medley
TTITLE10=Coming On Strong
TTITLE11=You're The One That I Want
TTITLE12=Medley
EXTD=
EXTT0=
EXTT1=
EXTT2=
EXTT3=
EXTT4=
EXTT5=
EXTT6=
EXTT7=
EXTT8=
EXTT9=
EXTT10=
EXTT11=
EXTT12=
PLAYORDER=
